<svg xmlns="http://www.w3.org/2000/svg" width="188.979" height="191.76" viewBox="0 0 188.979 191.76"><g transform="translate(-0.192 1279.947)" opacity="0.43"><path d="M695.064-1279.9a12.149,12.149,0,0,1-1.5.3c-5.214.839-9.784,3.371-14.308,7.94a44.731,44.731,0,0,0-11.087,19.717,51.172,51.172,0,0,0-1.978,13.124,43.02,43.02,0,0,0,2.727,16.93c5.588,14.233,18.323,19.522,30.4,12.616a37.052,37.052,0,0,0,12.061-12.181c6.817-10.967,9.289-26.054,6.232-38.13-2.8-11.057-9.454-18.369-18.2-20A18.43,18.43,0,0,0,695.064-1279.9Z" transform="translate(-566.203 0)" fill="#fff"/><path d="M306.491-1252.438a17.91,17.91,0,0,0-5.244,1.618c-4.57,2.217-8.57,6.667-11.132,12.39-4.03,9.02-4.659,20.825-1.678,31.718a45.86,45.86,0,0,0,7.4,15.237c5.663,7.147,12.795,10.682,19.657,9.723,10.308-1.423,18.144-12.42,19.552-27.447a75.152,75.152,0,0,0-.24-11.192c-2.322-16.555-11.626-29.5-22.893-31.823A20.218,20.218,0,0,0,306.491-1252.438Z" transform="translate(-243.477 -23.307)" fill="#fff"/><path d="M16.045-936.5a16.15,16.15,0,0,0-9.469,5.289c-3.386,3.925-5.409,9.3-6.113,16.135A25.507,25.507,0,0,0,.3-909.188c.09.839.24,2.2.33,3.026a53.173,53.173,0,0,0,9.978,25.53,49.551,49.551,0,0,0,7.206,7.281c4.7,3.416,8.989,4.9,13.514,4.674,8.884-.449,15.447-8.555,16.8-20.78a58.012,58.012,0,0,0-.09-9.663c-2.127-18.264-13.649-34.444-26.474-37.156A21.365,21.365,0,0,0,16.045-936.5Z" transform="translate(0 -291.916)" fill="#fff"/><path d="M976.823-873.549c-7.266,1.378-14.457,7.266-19.581,16.031-6.577,11.237-8.555,25.53-4.99,35.882a20.455,20.455,0,0,0,6.623,9.784c7.311,5.513,17.125,3.461,25.544-5.364,5.768-6.038,10.249-15.192,11.851-24.181a38.233,38.233,0,0,0,.614-11.746,31.411,31.411,0,0,0-2.772-10.622c-2.367-4.914-6.2-8.36-10.652-9.558A20.934,20.934,0,0,0,976.823-873.549Z" transform="translate(-807.93 -345.369)" fill="#fff"/><path d="M217.42-600.617c-7.476.509-16,2.427-20.031,4.495-2.427,1.258-4.06,2.636-9.109,7.626-2.592,2.562-5.274,5.079-5.948,5.589-2.412,1.828-6.263,4.285-13.244,8.465-9.079,5.424-13.858,8.615-16.076,10.727-3.206,3.042-5.124,10.173-4.6,17.125a28.214,28.214,0,0,0,4.105,13.229c3.311,4.929,9.454,9.933,15.986,13,9.9,4.645,21.634,7.117,39.7,8.346,3.176.21,12.975.7,17.979.9,2.262.09,5.289.225,6.712.3a98.25,98.25,0,0,0,10.727,0c1.154-.075,3.356-.21,4.884-.3q22.024-1.28,33.86-10.128a44.606,44.606,0,0,0,6.233-5.978c3.7-4.6,4.12-11.956,1.184-20.451-1.858-5.378-4.719-9.229-10.143-13.664-.854-.7-3.581-2.8-6.053-4.659-8.989-6.742-10.113-7.881-16.376-16.795a56.659,56.659,0,0,0-6.832-8.555,22.435,22.435,0,0,0-8.57-5.6,54.462,54.462,0,0,0-13.9-3.386C225.885-600.558,219.263-600.738,217.42-600.617Z" transform="translate(-125.94 -577.519)" fill="#fff"/></g></svg>