<svg xmlns="http://www.w3.org/2000/svg" xmlns:xlink="http://www.w3.org/1999/xlink" width="196.044" height="196.051" viewBox="0 0 196.044 196.051"><defs><style>.a{fill:#8bccfd;}.b{opacity:0.37;mix-blend-mode:multiply;isolation:isolate;fill:url(#a);}.c{fill:#f3f2f2;}</style><linearGradient id="a" x1="0.999" y1="0.991" x2="0.184" y2="0.106" gradientUnits="objectBoundingBox"><stop offset="0" stop-color="#fff"/><stop offset="0.088" stop-color="#f7f7f7"/><stop offset="0.217" stop-color="#e4e4e4"/><stop offset="0.371" stop-color="#c3c3c3"/><stop offset="0.545" stop-color="#969696"/><stop offset="0.735" stop-color="#5c5c5c"/><stop offset="0.936" stop-color="#171717"/><stop offset="1"/></linearGradient></defs><g transform="translate(-347 -1771)"><path class="a" d="M460.341,379.016a98.023,98.023,0,0,0-10.992,195.428c1.089.119,2.191.2,3.291.28,1.948.145,3.907.255,5.883.294.6.005,1.211.049,1.818.049,1.25,0,2.5-.066,3.725-.125.583-.028,1.161-.033,1.73-.065.294-.017.57-.017.862-.037a98,98,0,0,0,87.3-68.932c.134-.409.288-.818.426-1.237.066-.276.134-.566.22-.843.814-2.91,1.549-5.855,2.1-8.861.505-2.72.911-5.477,1.19-8.276,0-.03,0-.06.007-.091.3-3.143.466-6.329.466-9.56A98.023,98.023,0,0,0,460.341,379.016Z" transform="translate(-15.32 1391.984)"/><path class="b" d="M460.341,575.067c1.25,0,2.5-.066,3.725-.125.583-.028,1.161-.033,1.73-.065.294-.017.57-.017.862-.037a98,98,0,0,0,87.3-68.932c.134-.409.288-.818.426-1.237.066-.276.134-.566.22-.843.814-2.91,1.549-5.855,2.1-8.861.505-2.72.911-5.477,1.19-8.276,0-.03,0-.06.007-.091l-39.246-39.245-33.8,12.221-61.814,21.852-6.452-2.082-7.076,13.738-10.555,17.162,7.724,7.729-.781,10,46.744,46.746c1.948.145,3.907.255,5.883.294C459.126,575.023,459.734,575.067,460.341,575.067Z" transform="translate(-15.32 1391.984)"/><path class="c" d="M518.652,448.827s2.315-2.128-3.611-1.852c-4.718.222-4.447-1.377-5.121-2.643v-.412a1.279,1.279,0,0,0-1.666-1.235,11.8,11.8,0,0,0-12.283-1.911s-5.093,1.667-13.237,10.463c0,0-3.15,4.9-11.016,9.534,0,0-5.371,0-14.63,4.535,0,0-34.437,5.647-37.771,8.979,0,0-5.275,1.761-9.071,12.313,0,0,1.574,1.388-11.293,21.849,0,0-2.5,6.015,5.645-3.89,0,0,6.553-6.367,8.2-14.414.016-.071.031-.141.041-.212,1.551-8.019,4.355-6.891,5.68-8.443-.517.618-4.09,5.251-2.716,13.166,1.79,5.12-3.609,12.125-3.609,12.125s-3.241,6.666-7.221,8.979l.925,12.22h5.831s4.628.1-.648-4.072c0,0-4.627.185.093-4.905,0,0,8.238-11.018,14.166-15.462a22.311,22.311,0,0,0,8.052-11.478s11.4-1.043,19.039-.283h.005a37.178,37.178,0,0,1,4.194.749,30.643,30.643,0,0,1,7.543,2.861,25.5,25.5,0,0,1,5.214,3.748c1.235,1.41,3.1,4.685,3.041,11.571v.006a36.884,36.884,0,0,0,1.143,9.49c.621,2.489,1.051,4.144,1.354,5.247,0,.013.339-.2.1.707-.1.351-.346,2.464,1.071,1.453h3.277l2.346.368.137-.368c.335.072.036.984.02,1.033l0,.005v0c-.164,1.107,4.334-.874,5.954.137a2.7,2.7,0,0,0,1.145.24,2.253,2.253,0,0,0,1.559-.528c.015.01-.175-.132-.163-.12.01-.038.223.081.233.042a.747.747,0,0,0,.192-.475.691.691,0,0,0-.066-.268c.432-3.521-2.373-2.91-2.373-2.91a3.531,3.531,0,0,1-3.141-1.013,16.936,16.936,0,0,1-.809-2.443c-1.018-4.165-1.111-25.919,1.2-28.049,0,0,5.464-6.109,6.573-20.274,0,0,2.517-11.125,7.721-13.586.174.04,7.743,1.777,12.144.377a4.082,4.082,0,0,0,1.214.6c6.14,1.857,4.826-6.914,4.552-8.452,0-.014.01-.031.014-.048C517.82,451.881,519.67,450.31,518.652,448.827ZM478.91,523.569a17.088,17.088,0,0,1-.807-2.442c-.8-3.27-1.028-17.385.032-24.328.657,2.588,1.807,7.81.987,9.794,0,0-1.3,5.649.741,13.793.442,1.764.786,3.146,1.057,4.226A3.46,3.46,0,0,1,478.91,523.569Z" transform="translate(-15.32 1391.984)"/></g></svg>