<svg xmlns="http://www.w3.org/2000/svg" xmlns:xlink="http://www.w3.org/1999/xlink" width="196.066" height="196.034" viewBox="0 0 196.066 196.034"><defs><style>.a{fill:#8bccfd;}.b{opacity:0.37;mix-blend-mode:multiply;isolation:isolate;fill:url(#a);}.c{fill:#fff;}</style><linearGradient id="a" x1="1.091" y1="1.108" x2="-0.09" y2="-0.177" gradientUnits="objectBoundingBox"><stop offset="0" stop-color="#fff"/><stop offset="0.088" stop-color="#f7f7f7"/><stop offset="0.217" stop-color="#e4e4e4"/><stop offset="0.371" stop-color="#c3c3c3"/><stop offset="0.545" stop-color="#969696"/><stop offset="0.735" stop-color="#5c5c5c"/><stop offset="0.936" stop-color="#171717"/><stop offset="1"/></linearGradient></defs><g transform="translate(-1364 -1766.332)"><path class="a" d="M1011.088,891.378A98.017,98.017,0,0,0,1000.1,1086.8c1.8.215,3.6.348,5.437.465s3.683.152,5.55.152c.83,0,1.632-.059,2.445-.073,1.3-.044,2.593-.059,3.869-.138,1.48-.1,2.921-.3,4.369-.455.757-.086,1.507-.162,2.257-.24.4-.042.808-.074,1.205-.128a.436.436,0,0,0,.115-.01,97.8,97.8,0,0,0,72.041-51.064c.272-.494.6-.95.85-1.44a99.009,99.009,0,0,0,5.727-13.5c.406-1.2.85-2.377,1.2-3.617.63-2.166,1.173-4.383,1.661-6.62.081-.38.177-.753.255-1.133.112-.563.269-1.1.385-1.663.5-2.727.891-5.477,1.181-8.28.308-3.17.482-6.38.482-9.649A98.026,98.026,0,0,0,1011.088,891.378Z" transform="translate(450.938 874.954)"/><path class="b" d="M1025.479,1085.765a97.805,97.805,0,0,0,72.041-51.063c.272-.495.6-.951.85-1.441a99.007,99.007,0,0,0,5.726-13.5c.407-1.2.851-2.377,1.2-3.617.63-2.166,1.174-4.383,1.662-6.62l-59.1-59.1-11.269-4.844-6.586,29.379-47.425,25.48-8.547,3.293L950.02,1011.9l74.138,74c.4-.042.809-.074,1.206-.128A.44.44,0,0,0,1025.479,1085.765Z" transform="translate(450.938 874.954)"/><path class="c" d="M1039.433,957.2c1.531-7.988,9.627-2.957,9.627-2.957,0-3.536-5.325-6.6-5.325-6.6-3.428-6.784-6.51-5.689-9.193-5.544-11.516.632-11.012,17.585-11.012,17.585.142,17.654-13.807,20.992-13.807,20.992-18,12.582-27.632,13.236-27.632,13.236-29.327,1.259-27.742,5.146-27.742,5.146.111,1.534,13.244,4.6,13.244,4.6l-18.056,8.263c.821,3.337,14.116-1.206,14.116-1.206,16.632-7.057,29.984-.49,29.984-.49,2.786.963,6.581,2.107,9.666,3.009,3.039.882,5.379,1.529,5.379,1.529-2.022,4.271,2.026,9.358,2.026,9.358,1.806.656,3.776,5.086,3.776,5.086.816,2.63-4.543,1.1-4.543,1.1-3.23-1.037-2.955,1.477-2.955,1.477.6-.874,2.134-.656,2.134-.656v.818c.439,1.534,5.584-.377,5.584-.377,1.042,2.021,3.664,1.254,3.664,1.254a10.775,10.775,0,0,0,5.853,1.424c.218-.877,1.806.274,1.806.274.049-1.3-.948-1.367-1.12-1.367h5.935c.284-1.184,1.451-.819,2.024-.554a2.859,2.859,0,0,1,.328.172,1.348,1.348,0,0,0-.328-.993c-.777-.8-2.681.062-2.681.062l-7.441-.495c1.311-.493,1.311-1.475,1.311-1.475a24.931,24.931,0,0,1-4.649.656c-1.2-.274-2.406-4.268-2.406-4.268a6.193,6.193,0,0,1-.705-.659,14.382,14.382,0,0,0,2.563-.677c.766,1.5,2.709.934,2.709.934a7.976,7.976,0,0,0,4.335,1.054c.162-.647,1.336.2,1.336.2.037-.965-.7-1.012-.829-1.012h4.394c.21-.875,1.071-.608,1.5-.414v-.605c-.578-.6-1.984.044-1.984.044l-5.509-.363c.973-.365.973-1.095.973-1.095a18.539,18.539,0,0,1-3.445.488c-.889-.2-1.784-3.159-1.784-3.159-3.073-2.475-1.259-6.822-.127-8.892,21.28-5.087,25.025-16.819,25.025-16.819,3.939-6.451-1.752-24.836-1.752-24.836C1038.337,958.621,1039.433,957.2,1039.433,957.2Zm-24.1,66.782a.813.813,0,0,1-.1-.032,8.588,8.588,0,0,1-.078-5.687,9.674,9.674,0,0,0,.75,1.145c1.335.485,2.795,3.768,2.795,3.768C1019.3,1025.119,1015.329,1023.984,1015.329,1023.984Z" transform="translate(450.938 874.954)"/></g></svg>