<svg xmlns="http://www.w3.org/2000/svg" xmlns:xlink="http://www.w3.org/1999/xlink" width="196.052" height="196.051" viewBox="0 0 196.052 196.051"><defs><style>.a{fill:#8bccfd;}.b{opacity:0.37;mix-blend-mode:multiply;isolation:isolate;fill:url(#a);}.c{fill:#f3f2f2;}</style><linearGradient id="a" x1="0.992" y1="1.046" x2="-0.102" y2="-0.093" gradientUnits="objectBoundingBox"><stop offset="0" stop-color="#fff"/><stop offset="0.088" stop-color="#f7f7f7"/><stop offset="0.217" stop-color="#e4e4e4"/><stop offset="0.371" stop-color="#c3c3c3"/><stop offset="0.545" stop-color="#969696"/><stop offset="0.735" stop-color="#5c5c5c"/><stop offset="0.936" stop-color="#171717"/><stop offset="1"/></linearGradient></defs><g transform="translate(-861.974 -1774.806)"><path class="a" d="M180.833,379.016a98.023,98.023,0,0,0-10.988,195.428c3.022.329,6.087.513,9.174.574.608.005,1.206.049,1.814.049,2.124,0,4.226-.087,6.316-.227,1.24-.076,2.45-.255,3.683-.376a98.778,98.778,0,0,0,84.037-69.793c.461-1.571.765-3.2,1.159-4.808.385-1.627.85-3.233,1.169-4.9.505-2.72.921-5.482,1.191-8.276.309-3.173.473-6.39.473-9.651A98.032,98.032,0,0,0,180.833,379.016Z" transform="translate(779.165 1395.79)"/><path class="b" d="M270.831,515.69l-48.208-48.208-6.733,3.623-8.966,5.285H195.576l-44.34-44.342H137.852l-8.7,12.428,7.383,16.083,19.245,16.61-1.054,17.4-4.516,8.7v16.744l52.449,52.449A98,98,0,0,0,270.831,515.69Z" transform="translate(779.165 1395.79)"/><path class="c" d="M223.225,468.6c.552-1.306-3.467-2.192-3.467-2.192-2.451-2.465-7.147-2.649-7.147-2.649l-2.283-3.816-.664,5.421-3.74-4.783s-1.145,7.722-1.3,12.225-10.545,2.638-10.545,2.638c-16.458-9.962-40.651-6.755-40.651-6.755-6.686-3.476-10.74-6.831-13.216-10.072h0c-.383-.535-.743-1.057-1.085-1.568-9.51-14.207-3.85-19.931-1.269-21.625a2.865,2.865,0,0,1,1.071-.589h0c2.757-.828,6.822,2.08,8.712,2.476,7.794,1.634,4.9-4.346,3.6-5.26-8.331-5.839-12.658-4.313-15.884-1.948-16.945,12.437-4.09,29.023,2.163,35.26,1.849,1.842,8.027,6.684,8.027,6.684C141.211,483.308,146.9,496.2,146.9,496.2c-1.276,11.489.146,18.4,2.647,21.756.417,1.231.659,2.059.659,2.059.084.632.7.973,1.542,1.138a.959.959,0,0,0,.576.083,10.55,10.55,0,0,0,1.4.046l.035.005c1.43.278,2.8,1.443,3.054.147a2.4,2.4,0,0,0,.04-.467c.283-.048.453-.081.453-.081.61-2.857-3.031-3.076-3.031-3.076-1.54-.848-2.584-11-2.584-11a21.872,21.872,0,0,0,10.671-11.667c.774.1,9.973.437,9.973.437,12.379,4.862-.455,13.31,3.891,17.974,2.265,2.434,4.077,2.451,5.292,1.915,1.1.323,2.044.777,2.171-.262a2.471,2.471,0,0,0-1.9-2.606c-2.16-3.641,1.914-10.318,1.914-10.318,2.07-4.071,5.559-2.07,5.559-2.07,4.145,8.594,11.822,16.873,15.607,20.67h0s-.85,3.813,7.464,2.8c.95-1.613.779-2.3.207-2.53h0c-.925-1.736-4.372-4.919-5.339-4.3-.876-1.6-2.146-3.972-3.316-6.171a14.375,14.375,0,0,1-.154-9.162h0a16.506,16.506,0,0,0,1.854-6.187c8.017-18.871,14.427-19.854,14.427-19.854C226.264,474.279,222.671,469.9,223.225,468.6Z" transform="translate(779.165 1395.79)"/></g></svg>